<svg xmlns="http://www.w3.org/2000/svg" version="1.1" id="Capa_3" x="0" y="0" xml:space="preserve" width="900" height="900"><style type="text/css" id="style2">.st1{fill:#616261}.st2{fill:#ccc}.st3{fill:#0d0d13}.st4{fill:#333}.st6{fill:#4d4d4d}.st7{fill:#636c75}.st8{fill:#7e8792}.st10{fill:#eee8a9}.st12{fill:#1b1d24}.st13{fill:#303143}.st14{fill:#fff}.st15{fill:#7e8792;stroke:#333;stroke-width:1.0299;stroke-miterlimit:10}.st16{fill:#017681}.st17{fill:#d46400}</style><g id="g225" transform="translate(-501.96 69.02)"><g transform="translate(451.765 -198.824)" id="g202"><path id="polygon186" fill="#1e1e1e" d="M410 548h186v-24l-70-29H410z"/><g id="g200"><path id="polygon188" class="st1" fill="#616261" d="M468.7 554h1.9l60-60h-1.9z"/><path id="polygon190" class="st1" fill="#616261" d="M405 537.8l-.8 4.5 48.4-48.3h-3.8z"/><path id="polygon192" class="st1" fill="#616261" d="M445.9 494H444l-38 38-.4 2.3z"/><path id="polygon194" class="st1" fill="#616261" d="M544.3 554h1.8l37.2-37.2-.3-1.6z"/><path id="polygon196" class="st1" fill="#616261" d="M526.5 494H519l-60 60h7.5z"/><path id="polygon198" class="st1" fill="#616261" d="M536.9 554h3.7l39.4-40-1-2z"/></g></g><path transform="translate(451.765 -198.824)" id="polygon204" class="st4" fill="#333" d="M352.1 551.5h-74.2L248 607.4h134z"/><path transform="translate(451.765 -198.824)" id="polygon206" class="st4" fill="#333" d="M750.5 552.1h-67l-27 55.9h121z"/><path id="path208" d="M1116.165 440.176h-291.8c-.9 0-1.6-.7-1.6-1.6v-9.9c0-.9.7-1.6 1.6-1.6h291.9c.9 0 1.6.7 1.6 1.6v9.9c-.1.9-.8 1.6-1.7 1.6z" class="st4" fill="#333"/><path id="path210" d="M670.665 285.276v-8.8c0-2.6 2.2-4.8 4.8-4.8h12.6c1.6 0 3.2.4 4.6 1.3l43.7 26.4c2.7 1.6 4.4 4.6 4.4 7.7v4.2c0 4.5-3.7 8.2-8.2 8.2h-4.1c-.3 0-.6-.1-.9-.2l-55.9-32.5c-.6-.2-1-.8-1-1.5z" class="st7" fill="#636c75"/><path id="path212" d="M652.265 269.776l66.8 39.2c1.3.8 1 2.8-.5 3.2l-59.7 13.8c-3 .7-5.3 3.2-5.6 6.3l-1.2 12.3c-.1 1.4-1.3 2.5-2.8 2.5-2.7 0-5.1-1.6-6.1-4.2l-3.8-9.6c-.3-.8-.5-1.7-.5-2.7v-44.8c0-1.8.5-3.6 1.4-5.2l5.1-9.1c1.3-2.3 4.4-3.1 6.9-1.7z" class="st2" fill="#ccc"/><path id="path214" d="M761.465 297.676h-9.4c-4 0-7.3-3.3-7.3-7.3v-30.9c0-4 3.3-7.3 7.3-7.3h9.4c4 0 7.3 3.3 7.3 7.3v30.9c0 4-3.3 7.3-7.3 7.3z" class="st3" fill="#0d0d13"/><path id="path216" d="M734.565 305.076l9.5-12.9c.5-.6 1.2-1 2-1l21.5.2c.8 0 1.5.4 2 1l10 13.1c1.3 1.7.1 4-2 4l-41-.3c-2-.2-3.2-2.5-2-4.1z" class="st4" fill="#333"/><path id="path218" d="M688.865 414.776l15.6 2.6c.9.2 1.8-.5 1.9-1.5.5-10.2 6-61 59.9-59.2 54.6 1.8 57 59.1 57 69.4 0 .9.7 1.6 1.6 1.6h290.7c.9 0 1.6-.7 1.6-1.6-.1-9.2 1.7-54.4 52.1-54.4 49.2 0 52.1 45.3 52.1 55.7 0 1.1 1.1 1.9 2.1 1.5l50.7-16.9c.6-.2 1.1-.8 1.1-1.5v-35.3c0-.9-.7-1.6-1.6-1.6l-607.8-6c-.9 0-1.6.7-1.6 1.6v25.8c0 .9.7 1.6 1.6 1.6.8 0 1.5.6 1.6 1.4l1.6 12.4c.1.6.4 1 .9 1.3l9.4 4.2c2.6 1.2 5.7.9 8.1-.7l.3-.2c.3-.2.7-.3 1.1-.2z" class="st7" fill="#636c75"/><path id="path220" d="M848.765 284.176h-5c-1.9 0-3.5-1.6-3.5-3.5v-5.1c0-1.9 1.6-3.5 3.5-3.5h5.1c1.9 0 3.5 1.6 3.5 3.5v5.1c-.1 1.9-1.7 3.5-3.6 3.5z" class="st12" fill="#1b1d24"/><path id="path222" d="M1248.165 390.176h-12.9c-2 0-3.6 1.6-3.6 3.6v3.9c0 2 1.6 3.6 3.6 3.6h12.9c2 0 3.6-1.6 3.6-3.6v-3.9c0-2-1.6-3.6-3.6-3.6z" class="st3" fill="#0d0d13"/><path id="path224" d="M1276.065 353.976l-31.8-8.2c-2-.7-4-1.2-6.1-1.4l-157.6-14c-5.5-.5-10.9-1.9-16-4.1l-84.8-36.7c-2.9-1.3-6.1-1.9-9.3-1.9h-132.2c-.7 0-1.4.1-2 .2l-153.7 28.7c-23.8 3.6-12 6.7-12.9 13.5l-3.6 25.1c-1 6.7-25.5 14 10.7 14l595.2 6.4c6.2.1 2.8-5.1 2.8-11.4l3-1c0-4.6 2.6-7.6-1.7-9.2zm-241.6-16.8h-161.5c-3.4 0-6.2-2.8-6.2-6.2v-27.6c0-3.4 2.8-6.2 6.2-6.2h93.1c4.4 0 8.7 1 12.6 3l58.5 25.2c5.9 3 3.8 11.8-2.7 11.8z" class="st8" fill="#7e8792"/><path id="rect226" class="st4" fill="#333" d="M888.765 372.176h28v8h-28z"/><path id="path228" d="M1051.765 437.176h-108c-2.8 0-5-2.2-5-5s2.2-5 5-5h108c2.8 0 5 2.2 5 5s-2.2 5-5 5z" class="st10" fill="#eee8a9"/><path id="path230" d="M1039.765 343.176c-2.2 0-4-1.8-4-4v-13c0-2.2 1.8-4 4-4s4 1.8 4 4v13c0 2.2-1.8 4-4 4z" class="st7" fill="#636c75"/><path id="path232" d="M777.865 400.276l2.8-.6c1.7-.3 2.8-2 2.4-3.6l-4-20c-.3-1.7-2-2.8-3.6-2.4l-2.8.6c-1.7.3-2.8 2-2.4 3.6l4 20c.3 1.6 1.9 2.7 3.6 2.4z" class="st8" fill="#7e8792"/><path id="path234" d="M748.365 400.276l-2.8-.6c-1.7-.3-2.8-2-2.4-3.6l4-20c.3-1.7 2-2.8 3.6-2.4l2.8.6c1.7.3 2.8 2 2.4 3.6l-4 20c-.3 1.6-1.9 2.7-3.6 2.4z" class="st8" fill="#7e8792"/><path id="path236" d="M1181.565 406.176l2.5-.5c1.5-.3 2.5-1.8 2.2-3.3l-3.6-17.9c-.3-1.5-1.8-2.5-3.3-2.2l-2.5.5c-1.5.3-2.5 1.8-2.2 3.3l3.6 17.9c.3 1.5 1.8 2.5 3.3 2.2z" class="st8" fill="#7e8792"/><path id="path238" d="M1155.165 406.176l-2.5-.5c-1.5-.3-2.5-1.8-2.2-3.3l3.6-17.9c.3-1.5 1.8-2.5 3.3-2.2l2.5.5c1.5.3 2.5 1.8 2.2 3.3l-3.6 17.9c-.3 1.5-1.8 2.5-3.3 2.2z" class="st8" fill="#7e8792"/><path id="path240" d="M859.665 289.176h-25.7c-1.2 0-2.1-1-2.1-2.1v-3.7c0-1.2 1-2.1 2.1-2.1h25.7c1.2 0 2.1 1 2.1 2.1v3.7c0 1.1-1 2.1-2.1 2.1z" class="st7" fill="#636c75"/><path id="path242" d="M690.765 324.976c0-2.5 1.7-4.7 4-5.1l123.1-25.5c3-.6 5.9 1.8 5.9 5.1v25.5c0 2.9-2.2 5.2-4.9 5.2h-123.2c-2.7 0-4.9-2.3-4.9-5.2z" class="st4" fill="#333"/><path id="path244" d="M672.365 318.476l-11 1.9h-.1c-4.7 1.2-8.1 5.1-8.8 9.9l-3.5 26.9c-.3 2.5-1.5 4.8-3.2 6.5l-5.7 5.7c-1.1 1.1-1.5 2.7-1 4.1l5.6 17.7c.4 1.3 1.5 2.1 2.8 2.3.3 0 .5.2.7.4l1.1 1.4c.2.2.2.4.2.7v.8c0 2.4 1.3 4.6 3.4 5.8l15.3 8.4c.7.4 1.6-.1 1.6-1v-12.3c0-.6-.5-1.1-1.1-1.1-1.1 0-1.9-.9-1.9-1.9v-30.5-.2l6.9-44.1c0-.9-.6-1.6-1.3-1.4z" class="st4" fill="#333"/><path id="path246" d="M1273.265 354.176h2.5c2 0 6.1 3.6 7.1 5.3l8.7 15.1c.4.7 1.1 1.3 1.8 1.7l6.6 2.9c.8.4 1.5.9 2 1.6l3.4 4.7c.5.8.8 1.7.8 2.6v10.3c0 1.8-1.5 3.3-3.3 3.3h-8.1c-1.6 0-3.1.8-4 2.1l-7.6 10.9-4.9 10.7c-.7 1.4-.6 3.1.3 4.5l4.2 6.8c1.1 1.7-.2 4-2.2 4h-55.2c-2.3 0-4.1-1.8-4.1-4.1v-8.9l52-18z" class="st4" fill="#333"/><path id="path248" d="M1306.765 398.176h-27.2c-1 0-1.8-.8-1.8-1.8v-6.1c0-1.2.9-2.1 2.1-2.1h26.9z" class="st10" fill="#eee8a9"/><path id="path250" d="M780.365 422.876l6.6-1.3c1.4-.3 2.3-1.7 2-3.1l-4.2-20.9c-.3-1.4-1.7-2.3-3.1-2l-6.6 1.3c-1.4.3-2.3 1.7-2 3.1l4.2 20.9c.3 1.4 1.7 2.3 3.1 2z" class="st13" fill="#303143"/><path id="path252" d="M745.765 422.876l-6.6-1.3c-1.4-.3-2.3-1.7-2-3.1l4.2-20.9c.3-1.4 1.7-2.3 3.1-2l6.6 1.3c1.4.3 2.3 1.7 2 3.1l-4.2 20.9c-.3 1.4-1.6 2.3-3.1 2z" class="st13" fill="#303143"/><path id="path254" d="M782.065 379.176h-36.5c-2.1 0-3.7-1.7-3.7-3.7v-7.5c0-2.1 1.7-3.7 3.7-3.7h36.5c2.1 0 3.7 1.7 3.7 3.7v7.5c0 2-1.7 3.7-3.7 3.7z" class="st12" fill="#1b1d24"/><path id="path256" d="M1183.865 426.476l5.9-1.2c1.3-.3 2.1-1.5 1.8-2.8l-3.8-18.7c-.3-1.3-1.5-2.1-2.8-1.8l-5.9 1.2c-1.3.3-2.1 1.5-1.8 2.8l3.8 18.7c.3 1.2 1.5 2 2.8 1.8z" class="st13" fill="#303143"/><path id="path258" d="M1152.865 426.476l-5.9-1.2c-1.3-.3-2.1-1.5-1.8-2.8l3.8-18.7c.3-1.3 1.5-2.1 2.8-1.8l5.9 1.2c1.3.3 2.1 1.5 1.8 2.8l-3.8 18.7c-.3 1.2-1.5 2-2.8 1.8z" class="st13" fill="#303143"/><path id="path260" d="M1185.265 387.376h-32.7c-1.8 0-3.3-1.5-3.3-3.3v-6.7c0-1.8 1.5-3.3 3.3-3.3h32.7c1.8 0 3.3 1.5 3.3 3.3v6.7c.1 1.8-1.4 3.3-3.3 3.3z" class="st12" fill="#1b1d24"/><path id="path262" d="M813.865 447.176h-100.2c-2.7 0-4.9-2.2-4.9-4.9v-19.2c0-2.7 2.2-4.9 4.9-4.9h100.2c2.7 0 4.9 2.2 4.9 4.9v19.2c0 2.7-2.2 4.9-4.9 4.9z" class="st3" fill="#0d0d13"/><path id="path264" d="M1213.765 448.176h-89.6c-2.4 0-4.4-2-4.4-4.4v-17.2c0-2.4 2-4.4 4.4-4.4h89.6c2.4 0 4.4 2 4.4 4.4v17.2c0 2.4-2 4.4-4.4 4.4z" class="st3" fill="#0d0d13"/><g transform="translate(451.765 -198.824)" id="g270"><g id="g268"><path id="path266" d="M362.6 509.6c23.9-2.2 23.9 31.2 24.2 47 .2 10.3-.2 20.7-1 31-.8 9.5-3.4 19.4-3.2 28.9.4 17.4 22.1 16.9 34.6 15.9 19.1-1.6 37.4-7.8 56.3-10.6 41.1-6.2 82.8-1.5 124.1-2.3 16.6-.3 35.6-.3 49.8-10.2 12-8.3 18-22.2 27-33.2 6.3-7.7 14-13.1 23.9-15.3 10.4-2.3 21.7-1.6 32.2-.3 21.6 2.7 42.3 10.7 60.4 22.8 1.6 1.1 3.1-1.5 1.5-2.6-15.3-10.2-32.4-17.6-50.4-21.3-16.3-3.4-35.9-5.6-51.8.7-13.8 5.5-21.3 18.2-29.4 29.9-4.5 6.6-9.6 13.2-16.4 17.5-8.3 5.3-18.1 7.1-27.7 7.9-41.2 3.6-82.6-2.1-123.8 1-19.8 1.5-38.6 6.1-58 10.1-10.1 2-20.4 3.5-30.7 2.9-4.6-.3-9.8-.8-13.8-3.4-5.1-3.2-5.3-9-4.7-14.4 2.7-23.3 4.8-46.1 3.3-69.6-1-15.2-7-37.4-26.6-35.6-1.7.4-1.8 3.4.2 3.2z" class="st3" fill="#0d0d13"/></g></g><g transform="translate(451.765 -198.824)" id="g276"><path id="polygon272" class="st14" fill="#fff" d="M799.1 583l-.1 5h-18.1l.1-5.1z"/><path id="path274" d="M799.1 578.5H781c-2.4 0-4.4 2-4.4 4.4v5.1c0 2.4 2 4.4 4.4 4.4h18.1c2.4 0 4.4-2 4.4-4.4v-5.1c0-2.4-2-4.4-4.4-4.4z" class="st14" fill="#fff"/></g><g transform="translate(451.765 -198.824)" id="g328"><path id="path278" d="M263.7 519.3l-1.1 4.5c-.3 1.1.6 2.2 1.7 2.2h44.4c.8 0 1.5-.6 1.7-1.3l1.1-4.5c.3-1.1-.6-2.2-1.7-2.2h-44.4c-.8 0-1.5.6-1.7 1.3z" class="st15" fill="#7e8792" stroke="#333" stroke-width="1.03" stroke-miterlimit="10"/><g id="g284"><path id="path280" d="M322.5 514h-5c-1.7 0-3-1.3-3-3v-3c0-1.7 1.3-3 3-3h5c1.7 0 3 1.3 3 3v3c0 1.7-1.3 3-3 3z" class="st16" fill="#017681"/><path id="path282" d="M325 526h-7c-1.7 0-3-1.3-3-3v0c0-1.7 1.3-3 3-3h7c1.7 0 3 1.3 3 3v0c0 1.7-1.3 3-3 3z" class="st15" fill="#7e8792" stroke="#333" stroke-width="1.03" stroke-miterlimit="10"/></g><g id="g290"><path id="path286" d="M340.5 514h-5c-1.7 0-3-1.3-3-3v-3c0-1.7 1.3-3 3-3h5c1.7 0 3 1.3 3 3v3c0 1.7-1.3 3-3 3z" class="st16" fill="#017681"/><path id="path288" d="M343 526h-7c-1.7 0-3-1.3-3-3v0c0-1.7 1.3-3 3-3h7c1.7 0 3 1.3 3 3v0c0 1.7-1.3 3-3 3z" class="st15" fill="#7e8792" stroke="#333" stroke-width="1.03" stroke-miterlimit="10"/></g><g id="g296"><path id="path292" d="M358.5 514h-5c-1.7 0-3-1.3-3-3v-3c0-1.7 1.3-3 3-3h5c1.7 0 3 1.3 3 3v3c0 1.7-1.3 3-3 3z" class="st16" fill="#017681"/><path id="path294" d="M361 526h-7c-1.7 0-3-1.3-3-3v0c0-1.7 1.3-3 3-3h7c1.7 0 3 1.3 3 3v0c0 1.7-1.3 3-3 3z" class="st15" fill="#7e8792" stroke="#333" stroke-width="1.03" stroke-miterlimit="10"/></g><path id="line298" class="st15" fill="#7e8792" stroke="#333" stroke-width="1.03" stroke-miterlimit="10" d="M267.3 518.4l-2 7.6"/><path id="line300" class="st15" fill="#7e8792" stroke="#333" stroke-width="1.03" stroke-miterlimit="10" d="M270.3 518.4l-2 7.6"/><path id="line302" class="st15" fill="#7e8792" stroke="#333" stroke-width="1.03" stroke-miterlimit="10" d="M273.3 518.4l-2 7.6"/><path id="line304" class="st15" fill="#7e8792" stroke="#333" stroke-width="1.03" stroke-miterlimit="10" d="M276.3 518.4l-2 7.6"/><path id="line306" class="st15" fill="#7e8792" stroke="#333" stroke-width="1.03" stroke-miterlimit="10" d="M279.3 518.4l-2 7.6"/><path id="line308" class="st15" fill="#7e8792" stroke="#333" stroke-width="1.03" stroke-miterlimit="10" d="M282.3 518.4l-2 7.6"/><path id="line310" class="st15" fill="#7e8792" stroke="#333" stroke-width="1.03" stroke-miterlimit="10" d="M285.3 518.4l-2 7.6"/><path id="line312" class="st15" fill="#7e8792" stroke="#333" stroke-width="1.03" stroke-miterlimit="10" d="M288.3 518.4l-2 7.6"/><path id="line314" class="st15" fill="#7e8792" stroke="#333" stroke-width="1.03" stroke-miterlimit="10" d="M291.3 518.4l-2 7.6"/><path id="line316" class="st15" fill="#7e8792" stroke="#333" stroke-width="1.03" stroke-miterlimit="10" d="M294.3 518.4l-2 7.6"/><path id="line318" class="st15" fill="#7e8792" stroke="#333" stroke-width="1.03" stroke-miterlimit="10" d="M297.3 518.4l-2 7.6"/><path id="line320" class="st15" fill="#7e8792" stroke="#333" stroke-width="1.03" stroke-miterlimit="10" d="M300.3 518.4l-2 7.6"/><path id="line322" class="st15" fill="#7e8792" stroke="#333" stroke-width="1.03" stroke-miterlimit="10" d="M303.3 518.4l-2 7.6"/><path id="line324" class="st15" fill="#7e8792" stroke="#333" stroke-width="1.03" stroke-miterlimit="10" d="M306.3 518.4l-2 7.6"/><path id="line326" class="st15" fill="#7e8792" stroke="#333" stroke-width="1.03" stroke-miterlimit="10" d="M309.3 518.4l-2 7.6"/></g><g transform="translate(451.765 -198.824)" id="g334"><g id="g332"><path id="path330" d="M310.2 500.9c9.2 1.4 11.5 10.2 11.5 18.3 0 1.4 2.2 1.4 2.3 0 .1-9-2.9-18.9-13.1-20.5-1.5-.2-2.1 2-.7 2.2z" class="st6" fill="#4d4d4d"/></g></g><g transform="translate(451.765 -198.824)" id="g340"><g id="g338"><path id="path336" d="M312.5 500.2c12.3-.1 27.1 3.6 27.1 18.5 0 1.4 2.2 1.5 2.3 0 0-16.3-15.6-20.9-29.3-20.7-1.5 0-1.6 2.2-.1 2.2z" class="st6" fill="#4d4d4d"/></g></g><g transform="translate(451.765 -198.824)" id="g346"><g id="g344"><path id="path342" d="M311.4 500.7c7.9-3 18.4-1.6 26.5.2 8.4 1.8 19.2 7.3 17.5 17.6-.2 1.4 1.9 2 2.2.6 1.5-8.9-5-15.4-12.8-18.5-5.2-2.1-10.7-2.7-16.2-3.2-6-.6-12-1-17.7 1.2-1.4.5-.9 2.6.5 2.1z" class="st6" fill="#4d4d4d"/></g></g><path id="path348" d="M839.465 361.176c-1.5 0-2.7-1.2-2.7-2.7v-2.7c0-1.5 1.2-2.7 2.7-2.7 1.5 0 2.7 1.2 2.7 2.7v2.7c-.1 1.5-1.3 2.7-2.7 2.7z" class="st17" fill="#d46400"/><path id="path350" d="M836.465 405.176c-1.5 0-2.7-1.2-2.7-2.7v-2.7c0-1.5 1.2-2.7 2.7-2.7 1.5 0 2.7 1.2 2.7 2.7v2.7c-.1 1.5-1.3 2.7-2.7 2.7z" class="st17" fill="#d46400"/><path id="path352" d="M889.465 432.176c-1.5 0-2.7-1.2-2.7-2.7v-2.7c0-1.5 1.2-2.7 2.7-2.7 1.5 0 2.7 1.2 2.7 2.7v2.7c-.1 1.5-1.3 2.7-2.7 2.7z" class="st17" fill="#d46400"/><path id="path354" d="M965.465 422.176c-1.5 0-2.7-1.2-2.7-2.7v-2.7c0-1.5 1.2-2.7 2.7-2.7 1.5 0 2.7 1.2 2.7 2.7v2.7c-.1 1.5-1.3 2.7-2.7 2.7z" class="st17" fill="#d46400"/><path id="path356" d="M1056.465 423.176c-1.5 0-2.7-1.2-2.7-2.7v-2.7c0-1.5 1.2-2.7 2.7-2.7 1.5 0 2.7 1.2 2.7 2.7v2.7c-.1 1.5-1.3 2.7-2.7 2.7z" class="st17" fill="#d46400"/><path id="path358" d="M1106.465 405.176c-1.5 0-2.7-1.2-2.7-2.7v-2.7c0-1.5 1.2-2.7 2.7-2.7 1.5 0 2.7 1.2 2.7 2.7v2.7c-.1 1.5-1.3 2.7-2.7 2.7z" class="st17" fill="#d46400"/><path id="path360" d="M1140.465 367.176c-1.5 0-2.7-1.2-2.7-2.7v-2.7c0-1.5 1.2-2.7 2.7-2.7 1.5 0 2.7 1.2 2.7 2.7v2.7c-.1 1.5-1.3 2.7-2.7 2.7z" class="st17" fill="#d46400"/><path id="path362" d="M1200.465 367.176c-1.5 0-2.7-1.2-2.7-2.7v-2.7c0-1.5 1.2-2.7 2.7-2.7 1.5 0 2.7 1.2 2.7 2.7v2.7c-.1 1.5-1.3 2.7-2.7 2.7z" class="st17" fill="#d46400"/><path id="path364" d="M1231.465 380.176c-1.5 0-2.7-1.2-2.7-2.7v-2.7c0-1.5 1.2-2.7 2.7-2.7 1.5 0 2.7 1.2 2.7 2.7v2.7c-.1 1.5-1.3 2.7-2.7 2.7z" class="st17" fill="#d46400"/><path id="path366" d="M864.765 276.176h-32c-1.1 0-2-.9-2-2v-4c0-1.1.9-2 2-2h32c1.1 0 2 .9 2 2v4c0 1.1-.9 2-2 2z" class="st8" fill="#7e8792"/><g transform="translate(451.765 -198.824)" id="g372"><g id="g370"><path id="path368" d="M382.9 470.3c-8.7-1-14 2.1-14.4 11.2-.2 3.6.5 6.9 3.4 9.3 3.4 2.7 8.1 2.8 11.1 6.2 1.2 1.4 3.2-.6 2-2-3.2-3.8-8.7-3.5-11.9-7-2.4-2.6-2.4-9.4-.5-12.4 2.2-3.5 6.9-3 10.4-2.5 1.7.2 1.7-2.6-.1-2.8z" class="st6" fill="#4d4d4d"/></g></g><path id="path374" d="M744.765 264.176c3.9 0 7 4.3 7 9.5s-3.1 9.5-7 9.5" class="st2" fill="#ccc"/><path id="path376" d="M745.765 264.176c3.9 0 7 4.3 7 9.5s-3.1 9.5-7 9.5" fill="none"/><path id="path378" d="M831.765 286.876v47.6c0 1.5-1.2 2.7-2.7 2.7h-140.3.5-5.5c-3.3 0-6 2.7-6 6v64.3c0 1.5 1.2 2.7 2.7 2.7h5.6c1.5 0 2.7-1.2 2.7-2.7v-56.6c0-1.5 1.2-2.7 2.7-2.7H835.565c4 0 7.3-3.2 7.3-7.3v-54c0-1.5-1.2-2.7-2.7-2.7h-5.6c-1.6 0-2.8 1.2-2.8 2.7z" fill="#8ee6f1"/><g transform="translate(451.765 -198.824)" id="g384"><path id="path380" d="M390.7 504c-1.5 0-2.7-1.2-2.7-2.7v-2.7c0-1.5 1.2-2.7 2.7-2.7 1.5 0 2.7 1.2 2.7 2.7v2.7c-.1 1.5-1.3 2.7-2.7 2.7z" class="st4" fill="#333"/><path id="path382" d="M379.7 504c-1.5 0-2.7-1.2-2.7-2.7v-2.7c0-1.5 1.2-2.7 2.7-2.7 1.5 0 2.7 1.2 2.7 2.7v2.7c-.1 1.5-1.3 2.7-2.7 2.7z" class="st4" fill="#333"/></g><g transform="translate(451.765 -198.824)" id="g390"><path id="path386" d="M236.7 592c-1.5 0-2.7-1.2-2.7-2.7v-2.7c0-1.5 1.2-2.7 2.7-2.7 1.5 0 2.7 1.2 2.7 2.7v2.7c-.1 1.5-1.3 2.7-2.7 2.7z" class="st4" fill="#333"/><path id="path388" d="M225.7 592c-1.5 0-2.7-1.2-2.7-2.7v-2.7c0-1.5 1.2-2.7 2.7-2.7 1.5 0 2.7 1.2 2.7 2.7v2.7c-.1 1.5-1.3 2.7-2.7 2.7z" class="st4" fill="#333"/></g><g transform="translate(451.765 -198.824)" id="g396"><path id="path392" d="M362.7 540c-1.5 0-2.7-1.2-2.7-2.7v-2.7c0-1.5 1.2-2.7 2.7-2.7 1.5 0 2.7 1.2 2.7 2.7v2.7c-.1 1.5-1.3 2.7-2.7 2.7z" class="st4" fill="#333"/><path id="path394" d="M362.7 550c-1.5 0-2.7-1.2-2.7-2.7v-2.7c0-1.5 1.2-2.7 2.7-2.7 1.5 0 2.7 1.2 2.7 2.7v2.7c-.1 1.5-1.3 2.7-2.7 2.7z" class="st4" fill="#333"/></g><g transform="translate(451.765 -198.824)" id="g402"><path id="path398" d="M264.7 540c-1.5 0-2.7-1.2-2.7-2.7v-2.7c0-1.5 1.2-2.7 2.7-2.7 1.5 0 2.7 1.2 2.7 2.7v2.7c-.1 1.5-1.3 2.7-2.7 2.7z" class="st4" fill="#333"/><path id="path400" d="M264.7 550c-1.5 0-2.7-1.2-2.7-2.7v-2.7c0-1.5 1.2-2.7 2.7-2.7 1.5 0 2.7 1.2 2.7 2.7v2.7c-.1 1.5-1.3 2.7-2.7 2.7z" class="st4" fill="#333"/></g></g></svg>