<svg xmlns="http://www.w3.org/2000/svg" version="1.1" id="Capa_6" x="0" y="0" xml:space="preserve" width="900" height="900"><style type="text/css" id="style2">.st0{fill:#fff;stroke:#4d4d4d;stroke-width:2;stroke-miterlimit:10}.st1{fill:#b3b3b3}.st5{fill:#42210b}.st6{fill:#7d4c1a}.st9{fill:none;stroke:#a67c52;stroke-width:8;stroke-linecap:round;stroke-miterlimit:10}.st10{fill:#945b1a}.st11,.st20{fill:#666;stroke:#333;stroke-width:6.4746;stroke-miterlimit:10}.st20{fill:none;stroke:#42210b;stroke-width:10;stroke-linecap:round}.st21{fill:#a67c52}.st22{fill:#c69c6d}</style><g id="g194" transform="translate(0 -180)"><g id="g4026" transform="translate(-157.885 76.123)"><path class="st0" d="M727.5 335.7l11.4 15.7c2.3 3.2 6.6 4 10 2l11.8-7.1c1.4-.8 3.1-.6 4.2.5l21.4 20.7c2.2 2.1 5.9.7 6.1-2.4l2.1-38.7z" id="path4" fill="#fff" stroke="#4d4d4d" stroke-width="2" stroke-miterlimit="10"/><path class="st0" d="M437.2 475.6l-14 5.2c-2.8 1-5.4 4.5-6 8l-2.1 12.4c-.2 1.4-1.2 2.9-2.4 3.5L391.1 517c-2.2 1.3-3.3 4.9-1.7 6l19.6 13.5z" id="path6" fill="#fff" stroke="#4d4d4d" stroke-width="2" stroke-miterlimit="10"/><g id="g12"><path class="st1" d="M426.1 599.4l-29.3-27.5-38-9.9-38 9.9-29.3 27.5-13.9 38.7 4.7 41.1 22.2 34.1 34.6 19.2h39.1l34.6-19.2 22.2-34.1 4.7-41.1zm-67.2 66.9c-10.4 0-18.9-8.5-18.9-19s8.4-19 18.9-19c10.4 0 18.9 8.5 18.9 19s-8.5 19-18.9 19z" id="path8" fill="#b3b3b3"/><path class="st1" d="M900.1 599.4l-29.3-27.5-38-9.9-38 9.9-29.3 27.5-13.9 38.7 4.7 41.1 22.2 34.1 34.6 19.2h39.1l34.6-19.2 22.2-34.1 4.7-41.1zm-67.2 66.9c-10.4 0-18.9-8.5-18.9-19s8.4-19 18.9-19c10.4 0 18.9 8.5 18.9 19s-8.5 19-18.9 19z" id="path10" fill="#b3b3b3"/></g><path transform="rotate(34.278)" class="st1" id="rect14" fill="#b3b3b3" stroke-width="1" d="M946.362 22.579h56.999v69.399h-56.999z"/><path transform="rotate(32.155)" class="st1" id="rect16" fill="#b3b3b3" stroke-width="1" d="M893.781 54.57h25.7v22.9h-25.7z"/><path class="st1" d="M621 622H498.5v-27h96.3c14.5 0 26.2 11.7 26.2 26.2z" id="path18" fill="#b3b3b3"/><path d="M506.7 620L458 635.2l-35-111.8c-3.5-11.3-.3-23.6 8.3-31.2l17.6-15.7c6.5-2 13.5 1.8 15.7 8.6z" id="path20" fill="gray"/><path d="M723.3 635.9l-27.1-17 61.2-97.4c2.9-4.6 9-6 13.7-3.1l14.3 9c2.4 1.5 3.2 4.8 1.6 7.2z" id="path22" fill="#ccc"/><path d="M692.9 564.9l-9-5.7c-3.5-2.2-4.6-6.8-2.4-10.4l38.6-61.4c2.2-3.5 6.8-4.6 10.4-2.4l9 5.7c3.5 2.2 4.6 6.8 2.4 10.4l-38.6 61.4c-2.2 3.6-6.9 4.6-10.4 2.4z" id="path24" fill="#4d4d4d"/><path class="st5" d="M398.9 580.5l8.3 2.4c2.1.6 4.4-.6 5-2.8l70.7-248.2c.6-2.1-.6-4.4-2.8-5l-8.3-2.4c-2.1-.6-4.4.6-5 2.8l-70.7 248.2c-.6 2.1.6 4.4 2.8 5z" id="path26" fill="#42210b"/><path class="st6" d="M408.8 461.8l3.5 3.7c1.4 1.5 3.9 1.6 5.4.2l131.3-124c1.5-1.4 1.6-3.9.2-5.4l-3.5-3.7c-1.4-1.5-3.9-1.6-5.4-.2L409 456.4c-1.6 1.5-1.7 3.9-.2 5.4z" id="path28" fill="#7d4c1a"/><path d="M405.2 371.6l1.2 8.4c.3 2.2 2.4 3.8 4.6 3.5l385.3-53.3c2.2-.3 3.8-2.4 3.5-4.6l-1.2-8.4c-.3-2.2-2.4-3.8-4.6-3.5L408.7 367c-2.2.3-3.8 2.4-3.5 4.6z" id="path30" fill="#311a04"/><path class="st6" d="M405.9 376.7l393.4-54.5-.7-5.1c-.3-2.2-2.4-3.8-4.6-3.5L408.7 367c-2.2.3-3.8 2.4-3.5 4.6z" id="path32" fill="#7d4c1a"/><g id="g38"><path class="st6" d="M857.3 569.5h-52.9c-8.8 0-17.5 2.4-25.2 6.8l-67.6 39.2c-1.1.6-2.2.9-3.4.9h-127v-.4H496c-1.2 0-2 0-17-8l-64-36c-7.7-4.5-50.5-7-59.4-7h-52.9c-8.1 0-14.7 11-14.7 19.6v25.3c.3 4.5 3.7 8.1 8 9.2l47.8 12.2c8.8 2.2 15.9 8.9 19.1 17.8.5 1.7 1.1 3-.5 3.1l-52.6 3c-5.9.3-10.4 5.5-10.4 11.7v8.7c0 6.7 5.2 12.2 11.5 12.2h267.9v.5H849.1c6.4 0 11.5-5.5 11.5-12.2v-8.7c0-6.2-4.6-11.3-10.4-11.7l-52.6-3c-1.6-.1-1-1.4-.5-3.1 3.2-8.9 10.4-15.6 19.1-17.8l47.8-12.2c4.3-1.1 7.7-4.8 8-9.2v-25.3c0-8.6-6.6-15.6-14.7-15.6z" id="path36" fill="#7d4c1a"/></g><path class="st9" id="line40" fill="none" stroke="#a67c52" stroke-width="8" stroke-linecap="round" stroke-miterlimit="10" d="M435 415l29 19"/><path class="st9" id="line42" fill="none" stroke="#a67c52" stroke-width="8" stroke-linecap="round" stroke-miterlimit="10" d="M456.7 352.4l24.6 30.2"/><path class="st9" id="line44" fill="none" stroke="#a67c52" stroke-width="8" stroke-linecap="round" stroke-miterlimit="10" d="M515.5 345.8L531 367"/><path class="st9" id="line46" fill="none" stroke="#a67c52" stroke-width="8" stroke-linecap="round" stroke-miterlimit="10" d="M426.9 537.2l-27.7 5.1"/><g id="g52"><path class="st10" d="M857.3 569.5h-52.9c-8.8 0-17.5 2.4-25.2 6.8l-67.6 39.2c-1.1.6-2.2.9-3.4.9h-127v-.4h-70.3l331 72.5h7.3c6.4 0 11.5-5.5 11.5-12.2v-8.7c0-6.2-4.6-11.3-10.4-11.7l-52.6-3c-1.6-.1-1-1.4-.5-3.1 3.2-8.9 10.4-15.6 19.1-17.8l47.8-12.2c4.3-1.1 7.7-4.8 8-9.2v-25.3c-.1-8.8-6.7-15.8-14.8-15.8z" id="path48" fill="#945b1a"/><path class="st10" d="M482.3 609.7c-1-.5-2.1-1.1-3.3-1.7l-64-36c-7.7-4.5-50.5-7-59.4-7h-52.9c-2.9 0-5.7 1.4-8 3.7z" id="path50" fill="#945b1a"/></g><ellipse class="st11" cx="358.9" cy="647.3" rx="18.9" ry="19" id="ellipse54" fill="#666" stroke="#333" stroke-width="6.475" stroke-miterlimit="10"/><ellipse class="st11" cx="832.9" cy="647.3" rx="18.9" ry="19" id="ellipse56" fill="#666" stroke="#333" stroke-width="6.475" stroke-miterlimit="10"/><circle class="st6" cx="794" cy="320" r="10" id="circle58" fill="#7d4c1a"/><path class="st9" id="line60" fill="none" stroke="#a67c52" stroke-width="8" stroke-linecap="round" stroke-miterlimit="10" d="M788.3 312.3l-16.5 22.9"/><path d="M450 674s30 3 68 0" id="path124" fill="none" stroke="#c69c6d" stroke-width="7" stroke-linecap="round" stroke-miterlimit="10"/><path id="line126" fill="none" stroke="#42210b" stroke-width="7" stroke-linecap="round" stroke-miterlimit="10" d="M537.5 652.5h12"/><path class="st20" d="M856 590h-46s-27 0-64 37" id="path128" fill="none" stroke="#42210b" stroke-width="10" stroke-linecap="round" stroke-miterlimit="10"/><g id="g134"><g id="g132"><path class="st21" d="M304.1 602c22.6-.7 45.5-1.5 67.4 4.6 20.1 5.6 38.4 15.8 55.2 27.9 6.3 4.5 12.3-5.9 6.1-10.4-17.7-12.7-37.1-23.2-58.1-29.1-23-6.4-47-5.8-70.6-5.1-7.7.4-7.8 12.4 0 12.1z" id="path130" fill="#a67c52"/></g></g><path class="st20" d="M445 635s24 23 73 17" id="path136" fill="none" stroke="#42210b" stroke-width="10" stroke-linecap="round" stroke-miterlimit="10"/><g id="g142"><g id="g140"><path class="st22" d="M610 659c7.7 0 7.7-12 0-12s-7.7 12 0 12z" id="path138" fill="#c69c6d"/></g></g><g id="g148"><g id="g146"><path class="st22" d="M573 657c7.7 0 7.7-12 0-12s-7.7 12 0 12z" id="path144" fill="#c69c6d"/></g></g><g id="g154"><g id="g152"><path class="st21" d="M728.6 665.1c10.4-7.2 23.8-13.1 36.7-11.1 7.6 1.1 10.8-10.4 3.2-11.6-16.3-2.4-32.6 3.1-46 12.3-6.2 4.4-.2 14.8 6.1 10.4z" id="path150" fill="#a67c52"/></g></g><g id="g160"><g id="g158"><path class="st5" d="M378.6 677.1c10.4-7.2 23.8-13.1 36.7-11.1 7.6 1.1 10.8-10.4 3.2-11.6-16.3-2.4-32.6 3.1-46 12.3-6.2 4.4-.2 14.8 6.1 10.4z" id="path156" fill="#42210b"/></g></g><g id="g166"><g id="g164"><path class="st22" d="M705 677c7.7 0 7.7-12 0-12s-7.7 12 0 12z" id="path162" fill="#c69c6d"/></g></g><g id="g172"><g id="g170"><path class="st22" d="M836 681c7.7 0 7.7-12 0-12s-7.7 12 0 12z" id="path168" fill="#c69c6d"/></g></g><g id="g178"><g id="g176"><path class="st22" d="M471 634.2c26.7-1 53.4-.7 80 1 7.7.5 7.7-11.5 0-12-26.6-1.7-53.4-2.1-80-1-7.7.3-7.7 12.3 0 12z" id="path174" fill="#c69c6d"/></g></g><g id="g184"><g id="g182"><path class="st5" d="M630.5 639.6c25.1 10 53.3 11 79.1 3.2 7.4-2.2 4.2-13.8-3.2-11.6-24 7.3-49.4 6.1-72.8-3.2-7.1-2.8-10.2 8.8-3.1 11.6z" id="path180" fill="#42210b"/></g></g><g id="g190"><g id="g188"><path class="st5" d="M642.8 670.2c8.5-3.3 17.1-4.7 26.2-4.2 7.7.4 7.7-11.6 0-12-10.1-.5-20 1.1-29.4 4.7-7.2 2.7-4.1 14.3 3.2 11.5z" id="path186" fill="#42210b"/></g></g></g></g></svg>