<svg xmlns="http://www.w3.org/2000/svg" xmlns:xlink="http://www.w3.org/1999/xlink" viewBox="0 0 475.24 191.63"><defs><style>.cls-1{fill:url(#linear-gradient);}.cls-2{fill:#878787;}.cls-3,.cls-6,.cls-8{fill:none;stroke-miterlimit:10;}.cls-3{stroke:#fff;}.cls-4{fill:#1d1d1b;}.cls-5{mask:url(#mask);}.cls-6{stroke:#9d9d9c;}.cls-6,.cls-8{stroke-width:0.5px;}.cls-7{fill:#3c3c3b;}.cls-8{stroke:#1d1d1b;}.cls-9{font-size:20px;font-family:HelveticaNeue-CondensedBlack, Helvetica Neue;font-weight:800;}.cls-10,.cls-9{fill:#fff;}</style><linearGradient id="linear-gradient" x1="240.3" y1="143.81" x2="240.3" y2="121.54" gradientUnits="userSpaceOnUse"><stop offset="0" stop-color="#fff"/><stop offset="1"/></linearGradient><mask id="mask" x="52.91" y="0" width="374.79" height="144.32" maskUnits="userSpaceOnUse"><rect class="cls-1" x="52.91" y="121.54" width="374.79" height="22.27"/></mask></defs><g id="Layer_2" data-name="Layer 2"><g id="Layer_1-2" data-name="Layer 1"><polygon class="cls-2" points="232.37 144.07 232.37 166.25 111.31 166.25 111.31 166.24 138.88 144.07 232.37 144.07"/><polygon class="cls-2" points="353.43 166.25 232.37 166.25 232.37 144.07 325.85 144.07 353.43 166.25"/><polygon class="cls-2" points="474.49 166.25 353.43 166.25 325.85 144.07 419.34 144.07 474.49 166.25"/><line class="cls-3" x1="232.37" y1="144.07" x2="232.37" y2="166.25"/><line class="cls-3" x1="353.43" y1="166.25" x2="325.85" y2="144.07"/><rect class="cls-4" y="159.31" width="111.31" height="6.93"/><polygon class="cls-2" points="138.88 138.71 128.34 146.59 111.31 159.31 0 159.31 58.73 138.71 138.88 138.71"/><g class="cls-5"><rect class="cls-6" x="58.73" y="72.16" width="80.15" height="66.55"/><rect class="cls-6" x="138.88" y="72.16" width="93.49" height="71.91"/><rect class="cls-6" x="232.37" y="72.16" width="93.48" height="71.91"/><rect class="cls-6" x="325.85" y="72.16" width="93.49" height="71.91"/><rect class="cls-6" x="58.73" y="0.25" width="80.15" height="71.91"/><rect class="cls-6" x="138.88" y="0.25" width="93.49" height="71.91"/><rect class="cls-6" x="232.37" y="0.25" width="93.48" height="71.91"/><rect class="cls-6" x="325.85" y="0.25" width="93.49" height="71.91"/></g><path class="cls-7" d="M138.88,138.71v5.36l-27.57,22.17v-6.93Z"/><path class="cls-3" d="M111.31,159.31l27.57-20.6"/><line class="cls-8" x1="434.92" y1="166.25" x2="434.17" y2="166.25"/><rect class="cls-4" y="166.25" width="475.24" height="23.29"/><text class="cls-9" transform="translate(50.09 184.49)">A</text><text class="cls-9" transform="translate(166.1 184.49)">B</text><text class="cls-9" transform="translate(287.53 184.49)">C</text><text class="cls-9" transform="translate(407.94 184.49)">D</text><line class="cls-3" x1="111.31" y1="159.31" x2="111.31" y2="189.53"/><line class="cls-3" x1="232.36" y1="166.25" x2="232.36" y2="189.53"/><line class="cls-3" x1="353.43" y1="166.25" x2="353.43" y2="189.53"/><polyline class="cls-10" points="287.31 147.03 276.57 147.03 285.41 157.24 277.86 156.21 291.97 163.4 296.9 156.21 290.67 157.24 287.31 147.03"/><polyline class="cls-10" points="385.28 147.03 374.55 147.03 394.11 157.24 385.46 156.21 407.11 163.4 404.51 156.21 399.34 157.24 385.28 147.03"/></g></g></svg>