<svg xmlns="http://www.w3.org/2000/svg" version="1.1" id="Capa_3" x="0" y="0" xml:space="preserve" width="900" height="900"><style type="text/css" id="style2">.st0{fill:#017681}.st1{fill:#035a62}.st2{fill:#4d8c9e}.st3{fill:#eee8a9}.st4{fill:#ccc}.st5{fill:#f2f2f2}.st6{fill:gray}.st7{fill:#fff}.st8{font-family:&apos;Arial-BoldMT&apos;}.st9{font-size:17.3539px}.st10{font-size:9.1345px}.st11{fill:#1d1d1b}</style><g id="g433" transform="translate(-156.863 -110.98)"><path class="st0" d="M710.9 338H498.1c-3.6 0-6.6-2.9-6.6-6.6v-10.9c0-3.6 2.9-6.6 6.6-6.6H711c3.6 0 6.6 2.9 6.6 6.6v10.9c-.1 3.7-3 6.6-6.7 6.6z" id="path4" fill="#017681"/><path class="st1" d="M723.9 355H486.1c-3.1 0-5.6-2.5-5.6-5.6v-9.8c0-3.1 2.5-5.6 5.6-5.6h237.8c3.1 0 5.6 2.5 5.6 5.6v9.8c0 3.1-2.5 5.6-5.6 5.6z" id="path6" fill="#035a62"/><path class="st2" d="M730 373H479c-3.6 0-6.5-2.9-6.5-6.5v-8c0-3.6 2.9-6.5 6.5-6.5h251c3.6 0 6.5 2.9 6.5 6.5v8c0 3.6-2.9 6.5-6.5 6.5z" id="path8" fill="#4d8c9e"/><path class="st0" id="rect10" fill="#017681" d="M472.5 400h264v372h-264z"/><path class="st2" d="M706.5 772.5h-204V426.2c0-4 3.2-7.2 7.2-7.2h190c3.8 0 6.8 3.1 6.8 6.8z" id="path12" fill="#4d8c9e"/><path class="st1" d="M737.5 772h-265l-15.8 10.8c-2 1.4-3.2 3.6-3.2 6V802c0 2.2 1.8 4 4 4h295.3c2.1 0 3.8-1.7 3.8-3.8v-13.6c0-2.3-1.1-4.5-3-5.8z" id="path14" fill="#035a62"/><path class="st1" d="M580.7 498h-61.3c-2.1 0-3.8-1.7-3.8-3.8v-61.3c0-2.1 1.7-3.8 3.8-3.8h61.3c2.1 0 3.8 1.7 3.8 3.8v61.3c0 2.1-1.7 3.8-3.8 3.8z" id="path16" fill="#035a62"/><path class="st1" d="M580.7 582h-61.3c-2.1 0-3.8-1.7-3.8-3.8v-61.3c0-2.1 1.7-3.8 3.8-3.8h61.3c2.1 0 3.8 1.7 3.8 3.8v61.3c0 2.1-1.7 3.8-3.8 3.8z" id="path18" fill="#035a62"/><path class="st1" d="M690.7 582h-61.3c-2.1 0-3.8-1.7-3.8-3.8v-61.3c0-2.1 1.7-3.8 3.8-3.8h61.3c2.1 0 3.8 1.7 3.8 3.8v61.3c0 2.1-1.7 3.8-3.8 3.8z" id="path20" fill="#035a62"/><path class="st1" d="M580.7 665h-61.3c-2.1 0-3.8-1.7-3.8-3.8v-61.3c0-2.1 1.7-3.8 3.8-3.8h61.3c2.1 0 3.8 1.7 3.8 3.8v61.3c0 2.1-1.7 3.8-3.8 3.8z" id="path22" fill="#035a62"/><path class="st1" d="M690.7 665h-61.3c-2.1 0-3.8-1.7-3.8-3.8v-61.3c0-2.1 1.7-3.8 3.8-3.8h61.3c2.1 0 3.8 1.7 3.8 3.8v61.3c0 2.1-1.7 3.8-3.8 3.8z" id="path24" fill="#035a62"/><path class="st1" d="M580.7 748h-61.3c-2.1 0-3.8-1.7-3.8-3.8v-61.3c0-2.1 1.7-3.8 3.8-3.8h61.3c2.1 0 3.8 1.7 3.8 3.8v61.3c0 2.1-1.7 3.8-3.8 3.8z" id="path26" fill="#035a62"/><path class="st1" d="M690.7 748h-61.3c-2.1 0-3.8-1.7-3.8-3.8v-61.3c0-2.1 1.7-3.8 3.8-3.8h61.3c2.1 0 3.8 1.7 3.8 3.8v61.3c0 2.1-1.7 3.8-3.8 3.8z" id="path28" fill="#035a62"/><path class="st1" d="M748.2 402H460.8c-4.1 0-7.3-3.3-7.3-7.3v-25.3c0-4.1 3.3-7.3 7.3-7.3h287.3c4.1 0 7.3 3.3 7.3 7.3v25.3c.1 4-3.2 7.3-7.2 7.3z" id="path30" fill="#035a62"/><path d="M716.1 396H493.9c-3.3 0-5.9-2.6-5.9-5.9v-16.2c0-3.3 2.6-5.9 5.9-5.9h222.2c3.3 0 5.9 2.6 5.9 5.9v16.2c0 3.3-2.6 5.9-5.9 5.9z" id="path32"/><path class="st0" d="M618.9 312c-.5 0-.9-.3-1.1-.8l-.8-3.2v-25-.5c0-4.7-5.4-8.5-12-8.5s-12 3.8-12 8.5V308l-.8 3.2c-.1.5-.6.8-1.1.8h-1c-.3 0-.6.3-.6.6v2.3c0 1.1.9 2.1 2.1 2.1h26.8c1.1 0 2.1-.9 2.1-2.1v-2.1c0-.4-.4-.8-.8-.8z" id="path34" fill="#017681"/><path class="st3" d="M602.5 306h-6.1c-1.1 0-2-.9-2-2v-16c0-1.1.9-2 2-2h6.1c1.1 0 2 .9 2 2v16c0 1.1-.9 2-2 2z" id="path36" fill="#eee8a9"/><path class="st3" d="M613.5 306h-6.1c-1.1 0-2-.9-2-2v-16c0-1.1.9-2 2-2h6.1c1.1 0 2 .9 2 2v16c0 1.1-.9 2-2 2z" id="path38" fill="#eee8a9"/><g id="g52"><path class="st3" d="M534 462.5h-12c-2.2 0-4-1.8-4-4v-23.3c0-2.2 1.8-4 4-4h12c2.2 0 4 1.8 4 4v23.3c0 2.2-1.8 4-4 4z" id="path40" fill="#eee8a9"/><path class="st3" d="M556 462.5h-12c-2.2 0-4-1.8-4-4v-23.3c0-2.2 1.8-4 4-4h12c2.2 0 4 1.8 4 4v23.3c0 2.2-1.8 4-4 4z" id="path42" fill="#eee8a9"/><path class="st3" d="M578 462.5h-12c-2.2 0-4-1.8-4-4v-23.3c0-2.2 1.8-4 4-4h12c2.2 0 4 1.8 4 4v23.3c0 2.2-1.8 4-4 4z" id="path44" fill="#eee8a9"/><path class="st3" d="M534 495.8h-12c-2.2 0-4-1.8-4-4v-23.3c0-2.2 1.8-4 4-4h12c2.2 0 4 1.8 4 4v23.3c0 2.2-1.8 4-4 4z" id="path46" fill="#eee8a9"/><path class="st3" d="M556 495.8h-12c-2.2 0-4-1.8-4-4v-23.3c0-2.2 1.8-4 4-4h12c2.2 0 4 1.8 4 4v23.3c0 2.2-1.8 4-4 4z" id="path48" fill="#eee8a9"/><path class="st3" d="M578 495.8h-12c-2.2 0-4-1.8-4-4v-23.3c0-2.2 1.8-4 4-4h12c2.2 0 4 1.8 4 4v23.3c0 2.2-1.8 4-4 4z" id="path50" fill="#eee8a9"/></g><path class="st1" d="M690.7 498h-61.3c-2.1 0-3.8-1.7-3.8-3.8v-61.3c0-2.1 1.7-3.8 3.8-3.8h61.3c2.1 0 3.8 1.7 3.8 3.8v61.3c0 2.1-1.7 3.8-3.8 3.8z" id="path54" fill="#035a62"/><g id="g68"><path class="st3" d="M644 462.5h-12c-2.2 0-4-1.8-4-4v-23.3c0-2.2 1.8-4 4-4h12c2.2 0 4 1.8 4 4v23.3c0 2.2-1.8 4-4 4z" id="path56" fill="#eee8a9"/><path class="st3" d="M666 462.5h-12c-2.2 0-4-1.8-4-4v-23.3c0-2.2 1.8-4 4-4h12c2.2 0 4 1.8 4 4v23.3c0 2.2-1.8 4-4 4z" id="path58" fill="#eee8a9"/><path class="st3" d="M688 462.5h-12c-2.2 0-4-1.8-4-4v-23.3c0-2.2 1.8-4 4-4h12c2.2 0 4 1.8 4 4v23.3c0 2.2-1.8 4-4 4z" id="path60" fill="#eee8a9"/><path class="st3" d="M644 495.8h-12c-2.2 0-4-1.8-4-4v-23.3c0-2.2 1.8-4 4-4h12c2.2 0 4 1.8 4 4v23.3c0 2.2-1.8 4-4 4z" id="path62" fill="#eee8a9"/><path class="st3" d="M666 495.8h-12c-2.2 0-4-1.8-4-4v-23.3c0-2.2 1.8-4 4-4h12c2.2 0 4 1.8 4 4v23.3c0 2.2-1.8 4-4 4z" id="path64" fill="#eee8a9"/><path class="st3" d="M688 495.8h-12c-2.2 0-4-1.8-4-4v-23.3c0-2.2 1.8-4 4-4h12c2.2 0 4 1.8 4 4v23.3c0 2.2-1.8 4-4 4z" id="path66" fill="#eee8a9"/></g><path class="st1" id="rect70" fill="#035a62" d="M595.5 419h19v353.5h-19z"/><g id="g86"><ellipse class="st4" cx="591.5" cy="537.5" rx="2.7" ry="5" id="ellipse72" fill="#ccc"/><ellipse class="st4" cx="591.5" cy="556.5" rx="2.7" ry="5" id="ellipse74" fill="#ccc"/><path class="st5" d="M591.5 552.5c-.3 0-.5-.2-.5-.5v-10c0-.3.2-.5.5-.5s.5.2.5.5v10c0 .3-.2.5-.5.5z" id="path76" fill="#f2f2f2"/><circle class="st6" cx="591.5" cy="535" r=".5" id="circle78" fill="gray"/><circle class="st6" cx="591.5" cy="540" r=".5" id="circle80" fill="gray"/><circle class="st6" cx="591.5" cy="554" r=".5" id="circle82" fill="gray"/><circle class="st6" cx="591.5" cy="559" r=".5" id="circle84" fill="gray"/></g><g id="g102"><ellipse class="st4" cx="619.5" cy="531.5" rx="2.7" ry="5" id="ellipse88" fill="#ccc"/><ellipse class="st4" cx="619.5" cy="562.5" rx="2.7" ry="5" id="ellipse90" fill="#ccc"/><path class="st5" d="M619.5 558.5c-.3 0-.5-.2-.5-.5v-22c0-.3.2-.5.5-.5s.5.2.5.5v22c0 .3-.2.5-.5.5z" id="path92" fill="#f2f2f2"/><circle class="st6" cx="619.5" cy="529" r=".5" id="circle94" fill="gray"/><circle class="st6" cx="619.5" cy="534" r=".5" id="circle96" fill="gray"/><circle class="st6" cx="619.5" cy="560" r=".5" id="circle98" fill="gray"/><circle class="st6" cx="619.5" cy="565" r=".5" id="circle100" fill="gray"/></g><path class="st7" id="rect104" fill="#fff" d="M528 516.5h44v60h-44z"/><g id="g110"><text transform="translate(499.697 388.967)" class="st7 st8 st9" id="text106" font-size="17.354" font-family="Arial-BoldMT" fill="#fff">POLICE</text><text transform="translate(672.697 388.967)" class="st7 st8 st9" id="text108" font-size="17.354" font-family="Arial-BoldMT" fill="#fff">BOX</text></g><text y="378.53" x="588" id="text116"><tspan x="588" y="378.53" class="st7 st8 st10" id="tspan112" font-size="9.134" font-family="Arial-BoldMT" fill="#fff">PUBLIC</tspan><tspan x="592.8" y="389.53" class="st7 st8 st10" id="tspan114" font-size="9.134" font-family="Arial-BoldMT" fill="#fff">CALL</tspan></text><g id="g148"><g id="g122"><g id="g120"><path class="st11" d="M533.2 528c.4-.5.9-1.2 1.4-1.6.8-.3 1.5-.7 2.3-1 1 .4 1.8 1 2.4 1.8.4.2.2.4.8.5.6 0 1-.4 1.4-.8.3-.3.6-1 .9-1.3 2-1.2 2.2.8 2.9 1.6.8.9 1.4 1 2.4.3.3-.2.6-.8.9-1 3.5-1.9 2.3.5 3.3 1.4.2.2.5.3.7.3.4 0 .6-.2.9-.5.2-.2.2-.4.4-.6.5-.5 1.4-1.3 2.2-1 1.3.5.7 1.1 2.1.8 2.3-.6-3.4-.8 1.6-.4 2.8.2.4 0 1.6.6.7.4.9.8 1.8.6 1.5-.2 2.2-1.8 2.7-3.1.1-.1-.2-.2-.2-.1-.2 1.3-1 1.9-2.3 1.8-1.2 1-2 .9-2.5-.4-.2-.1-.3-.4-.5-.4-.4-.2-.8-.4-1.2-.2-.4.2-.4.7-.8.9-1.2.6-1.7-.3-2.5-.7-1.2-.5-1.3.5-2.1 1.2-2.3 2.1-1.9-1.3-3.9-1.2-.5 0-.8.3-1.3.5-.3.2-.5.4-.7.7-.9-.1-1.9-.2-2.8-.2-.3-.2-.5-.8-.7-1.1-1.1-.9-1.4-.3-2.4.3-.5.3-2.1 1.3-2.7 1.1.5.2-.9-1.3-.7-1.1-.3-.3-.7-.5-1.1-.5-2-.4-3.4 1.3-4.5 2.6-.1.1.1.3.2.2z" id="path118" fill="#1d1d1b"/></g></g><g id="g128"><g id="g126"><path class="st11" d="M537.2 538.9c1-1.2 2.5-3 4.3-2.8.7.1.8.6 1.5.6.7-.1 1.1-.7 1.7-.9 2.1-.8 2.2.4 3.6 1.1.3.2.6.3.9.3.3 0 .5-.2.7-.2 1.1-.2 2.2-.3 3.3-.2 2.5.3 4.8-.3 7.3-.8.2 0 .1-.3-.1-.2-1.9.3-4 1-5.9 1-1.1 0-2.2-.8-3.3-.7-.2 0-.5.1-.7.2-1.4.3-1.6.7-2.9-.2-.5-.3-.9-.8-1.5-.9-.5-.1-.9.1-1.3.3-1 .5-1.2 1.3-2.7.8-.3-.1-.5-.5-.9-.6-1.6-.3-3.3 2.1-4.1 3.1-.2 0 0 .2.1.1z" id="path124" fill="#1d1d1b"/></g></g><g id="g134"><g id="g132"><path class="st11" d="M535.5 550.4c1.7-1.7 4.3-4.6 7-3.3 1 .5 1.7 1.5 2.8 1.8.9.3 1.5 0 2.3-.5 1.2-.7 2-1.4 3.5-1.2.9.1 1.7.5 2.6.6 1 .1 1.7.1 2.6-.4 1.2-.6 1.5-1.5 3.4-.9.8.3 1.4 1 2.2 1.3 1.9.7 3.9 0 5.1-1.5.1-.1-.1-.3-.2-.2-1.9 2.2-4.2 1.8-6.5.4-.8-.5-1.5-.8-2.4-.5-.5.1-.8.5-1.2.7-1.6.8-2.6.8-4.3.4-1-.2-2-.6-3-.3-1.6.5-3.2 2.1-5 1.2-1-.5-1.7-1.5-2.9-1.8-2.3-.4-4.9 2.3-6.3 3.8 0 .3.1.5.3.4z" id="path130" fill="#1d1d1b"/></g></g><g id="g140"><g id="g138"><path class="st11" d="M536.7 562c.8-1 2-3 3.3-3.5 1.3.2 2.5.5 3.8.7l.3.6c.2.1.3.4.5.5 2.1 1 2.4-3 5-1.4.8.5 1 1.8 2.2 1.1.7-.4-.2-.3.5-.8.1-.6.4-.7 1-.3.6-.1.9.1.9.6.4.4.3.7.8 1h.2c.6-1 .8-2 2.1-1.9 1.5.2.4.1 1.2.7.4.3.6.7 1.2.7.8.1 1.3-.4 1.5-1.1 0-.2-.2-.2-.2-.1-.9-.1-1.7-.2-2.6-.2-.1-.2-.2-.3-.3-.5-.1 0 0-.1-.3-.2-.7-.2.3-.2-.6-.1-.7.1-.9.8-1.4 1.2-.1 0-.4.7-.5.7-.6.1-1-.8-1.2-1-.3-.3-.3-.8-.9-.8-1.8.1-.1 2.5-3.2 1.2-.9-.4-.8-1-2-.7-.6.2-1 1-1.5 1.1-.1 0-2.7-.9-2.8-.9 1.2 1-.9-1.3-.5-.9-2.1-2.1-5.6 2.9-6.7 4.2-.1.1.1.2.2.1z" id="path136" fill="#1d1d1b"/></g></g><g id="g146"><g id="g144"><path class="st11" d="M537 569.2c.6-.4 1.4-1.1 2.1-1.1 1.5-.1 2.5.6 3.3 1.6.3.4.5.8.9 1.1.8.5 1.6.3 2.3-.1.8-.5 1.3-1.3 2-1.8 1.5-1.1 3.2-1.4 4.9-.8 1.1.4 2 1.5 3.2.7.4-.3.6-.9.9-1.3.5-.9 2.1-3.9 2.9-3.9 1.4 0 2.3 3.4 3.5 4.1 1.7 1.1 4 .1 3.4-2.1 0-.2-.3-.1-.2.1-2.1 2.1-3.5 2.2-4.4.3-.4-.7-.7-1.5-1-2.2-.1-.1-.1-.4-.3-.5-.5-.3-.3-.3-.9-.1-1.2.4-2.3 3-3 3.9-.4 1.1-1.3 1.6-2.7 1.6-.4-.3-.8-.5-1.2-.7-.5-.2-.9-.3-1.4-.3-1.2-.1-2.3.1-3.3.7-1.8 1.1-3.5 3.9-5.6 1.1-1.6-2.2-3.4-1.8-5.6-.3-.1-.1.1.1.2 0z" id="path142" fill="#1d1d1b"/></g></g></g><g id="g154"><g id="g152"><path class="st11" d="M570.1 574.2h-.2c-.2 0-.2.3 0 .3h.2c.2-.1.2-.3 0-.3z" id="path150" fill="#1d1d1b"/></g></g><circle class="st5" cx="622" cy="589.5" r="5" id="circle156" fill="#f2f2f2"/><path d="M623.2 588c0-.7-.5-1.2-1.2-1.2s-1.2.5-1.2 1.2c0 .5.3.9.7 1.1l-.6 3.2h2.2l-.6-3.2c.4-.2.7-.6.7-1.1z" id="path158" fill="#1a1919"/></g></svg>